<mxfile host="app.diagrams.net" agent="Mozilla/5.0 (Windows NT 10.0; Win64; x64) AppleWebKit/537.36 (KHTML, like Gecko) Chrome/133.0.0.0 Safari/537.36" version="26.1.0">
  <diagram name="Page-1" id="RaXaUISRDTu_rJm5hRxb">
    <mxGraphModel dx="1050" dy="557" grid="1" gridSize="10" guides="1" tooltips="1" connect="1" arrows="1" fold="1" page="1" pageScale="1" pageWidth="850" pageHeight="1100" math="0" shadow="0">
      <root>
        <mxCell id="0" />
        <mxCell id="1" parent="0" />
        <mxCell id="bbLIiAPHO2BsB2zvSvo4-5" style="edgeStyle=orthogonalEdgeStyle;rounded=0;orthogonalLoop=1;jettySize=auto;html=1;exitX=0.5;exitY=1;exitDx=0;exitDy=0;entryX=0.5;entryY=0;entryDx=0;entryDy=0;" edge="1" parent="1" source="bbLIiAPHO2BsB2zvSvo4-1" target="bbLIiAPHO2BsB2zvSvo4-29">
          <mxGeometry relative="1" as="geometry">
            <mxPoint x="310" y="190" as="targetPoint" />
          </mxGeometry>
        </mxCell>
        <mxCell id="bbLIiAPHO2BsB2zvSvo4-1" value="Inicio" style="ellipse;whiteSpace=wrap;html=1;" vertex="1" parent="1">
          <mxGeometry x="250" y="80" width="120" height="80" as="geometry" />
        </mxCell>
        <mxCell id="bbLIiAPHO2BsB2zvSvo4-7" style="edgeStyle=orthogonalEdgeStyle;rounded=0;orthogonalLoop=1;jettySize=auto;html=1;entryX=0.5;entryY=0;entryDx=0;entryDy=0;exitX=0.503;exitY=0.863;exitDx=0;exitDy=0;exitPerimeter=0;" edge="1" parent="1" source="bbLIiAPHO2BsB2zvSvo4-29">
          <mxGeometry relative="1" as="geometry">
            <mxPoint x="310" y="260" as="sourcePoint" />
            <mxPoint x="310" y="300" as="targetPoint" />
          </mxGeometry>
        </mxCell>
        <mxCell id="bbLIiAPHO2BsB2zvSvo4-9" style="edgeStyle=orthogonalEdgeStyle;rounded=0;orthogonalLoop=1;jettySize=auto;html=1;exitX=0.5;exitY=1;exitDx=0;exitDy=0;entryX=0.5;entryY=0;entryDx=0;entryDy=0;" edge="1" parent="1" target="bbLIiAPHO2BsB2zvSvo4-8">
          <mxGeometry relative="1" as="geometry">
            <mxPoint x="310" y="360" as="sourcePoint" />
          </mxGeometry>
        </mxCell>
        <mxCell id="bbLIiAPHO2BsB2zvSvo4-11" style="edgeStyle=orthogonalEdgeStyle;rounded=0;orthogonalLoop=1;jettySize=auto;html=1;exitX=0.5;exitY=1;exitDx=0;exitDy=0;entryX=0.5;entryY=0;entryDx=0;entryDy=0;" edge="1" parent="1" source="bbLIiAPHO2BsB2zvSvo4-8" target="bbLIiAPHO2BsB2zvSvo4-31">
          <mxGeometry relative="1" as="geometry">
            <mxPoint x="310" y="520" as="targetPoint" />
          </mxGeometry>
        </mxCell>
        <mxCell id="bbLIiAPHO2BsB2zvSvo4-33" style="edgeStyle=orthogonalEdgeStyle;rounded=0;orthogonalLoop=1;jettySize=auto;html=1;exitX=0;exitY=0.5;exitDx=0;exitDy=0;entryX=0;entryY=0.5;entryDx=0;entryDy=0;" edge="1" parent="1" source="bbLIiAPHO2BsB2zvSvo4-8" target="bbLIiAPHO2BsB2zvSvo4-28">
          <mxGeometry relative="1" as="geometry" />
        </mxCell>
        <mxCell id="bbLIiAPHO2BsB2zvSvo4-8" value="1 &amp;gt;= x &amp;lt; 5" style="rhombus;whiteSpace=wrap;html=1;" vertex="1" parent="1">
          <mxGeometry x="255" y="400" width="110" height="80" as="geometry" />
        </mxCell>
        <mxCell id="bbLIiAPHO2BsB2zvSvo4-20" style="edgeStyle=orthogonalEdgeStyle;rounded=0;orthogonalLoop=1;jettySize=auto;html=1;exitX=0.5;exitY=1;exitDx=0;exitDy=0;entryX=0.5;entryY=0;entryDx=0;entryDy=0;" edge="1" parent="1" source="bbLIiAPHO2BsB2zvSvo4-14" target="bbLIiAPHO2BsB2zvSvo4-47">
          <mxGeometry relative="1" as="geometry">
            <mxPoint x="310" y="840" as="targetPoint" />
          </mxGeometry>
        </mxCell>
        <mxCell id="bbLIiAPHO2BsB2zvSvo4-25" style="edgeStyle=orthogonalEdgeStyle;rounded=0;orthogonalLoop=1;jettySize=auto;html=1;exitX=1;exitY=0.5;exitDx=0;exitDy=0;" edge="1" parent="1" source="bbLIiAPHO2BsB2zvSvo4-14" target="bbLIiAPHO2BsB2zvSvo4-37">
          <mxGeometry relative="1" as="geometry">
            <mxPoint x="440" y="765" as="targetPoint" />
          </mxGeometry>
        </mxCell>
        <mxCell id="bbLIiAPHO2BsB2zvSvo4-14" value="¿El monto ingresado es un suficente?&amp;nbsp;" style="rhombus;whiteSpace=wrap;html=1;" vertex="1" parent="1">
          <mxGeometry x="255" y="720" width="110" height="90" as="geometry" />
        </mxCell>
        <mxCell id="bbLIiAPHO2BsB2zvSvo4-27" style="edgeStyle=orthogonalEdgeStyle;rounded=0;orthogonalLoop=1;jettySize=auto;html=1;exitX=0.5;exitY=1;exitDx=0;exitDy=0;" edge="1" parent="1" source="bbLIiAPHO2BsB2zvSvo4-47" target="bbLIiAPHO2BsB2zvSvo4-26">
          <mxGeometry relative="1" as="geometry">
            <mxPoint x="310" y="900" as="sourcePoint" />
            <mxPoint x="310" y="940" as="targetPoint" />
          </mxGeometry>
        </mxCell>
        <mxCell id="bbLIiAPHO2BsB2zvSvo4-22" value="Sí" style="text;html=1;align=center;verticalAlign=middle;whiteSpace=wrap;rounded=0;" vertex="1" parent="1">
          <mxGeometry x="260" y="810" width="60" height="30" as="geometry" />
        </mxCell>
        <mxCell id="bbLIiAPHO2BsB2zvSvo4-24" value="No" style="text;html=1;align=center;verticalAlign=middle;whiteSpace=wrap;rounded=0;" vertex="1" parent="1">
          <mxGeometry x="370" y="730" width="60" height="30" as="geometry" />
        </mxCell>
        <mxCell id="bbLIiAPHO2BsB2zvSvo4-26" value="Fin" style="ellipse;whiteSpace=wrap;html=1;" vertex="1" parent="1">
          <mxGeometry x="250" y="940" width="120" height="80" as="geometry" />
        </mxCell>
        <mxCell id="bbLIiAPHO2BsB2zvSvo4-28" value="1=Galletas: $2000&amp;nbsp;&lt;div&gt;2=Gaseosas: $5000&lt;/div&gt;&lt;div&gt;3=Papas: $3000&lt;/div&gt;&lt;div&gt;4=Chocolates: $1500&lt;/div&gt;" style="rounded=0;whiteSpace=wrap;html=1;" vertex="1" parent="1">
          <mxGeometry x="250" y="300" width="120" height="60" as="geometry" />
        </mxCell>
        <mxCell id="bbLIiAPHO2BsB2zvSvo4-29" value="&quot;Seleccionar un producto&quot;" style="shape=document;whiteSpace=wrap;html=1;boundedLbl=1;" vertex="1" parent="1">
          <mxGeometry x="250" y="200" width="120" height="80" as="geometry" />
        </mxCell>
        <mxCell id="bbLIiAPHO2BsB2zvSvo4-31" value="1: $2000&amp;nbsp;&lt;div&gt;2: $5000&lt;/div&gt;&lt;div&gt;3: $3000&lt;/div&gt;&lt;div&gt;4: $1500&lt;/div&gt;" style="shape=document;whiteSpace=wrap;html=1;boundedLbl=1;" vertex="1" parent="1">
          <mxGeometry x="250" y="510" width="120" height="80" as="geometry" />
        </mxCell>
        <mxCell id="bbLIiAPHO2BsB2zvSvo4-32" value="&lt;h1 style=&quot;margin-top: 0px;&quot;&gt;Explicación&lt;/h1&gt;&lt;p&gt;El producto seleccionado debe estar en el rango de 1 a 4.&lt;/p&gt;&lt;p&gt;Cualquier otra elección está por fuera del rango.&lt;/p&gt;" style="text;html=1;whiteSpace=wrap;overflow=hidden;rounded=0;" vertex="1" parent="1">
          <mxGeometry x="430" y="260" width="180" height="120" as="geometry" />
        </mxCell>
        <mxCell id="bbLIiAPHO2BsB2zvSvo4-34" value="Sí" style="text;html=1;align=center;verticalAlign=middle;whiteSpace=wrap;rounded=0;" vertex="1" parent="1">
          <mxGeometry x="305" y="480" width="60" height="30" as="geometry" />
        </mxCell>
        <mxCell id="bbLIiAPHO2BsB2zvSvo4-35" value="No" style="text;html=1;align=center;verticalAlign=middle;whiteSpace=wrap;rounded=0;" vertex="1" parent="1">
          <mxGeometry x="220" y="410" width="60" height="30" as="geometry" />
        </mxCell>
        <mxCell id="bbLIiAPHO2BsB2zvSvo4-36" value="Aquí se muestra el precio del producto seleccionado" style="text;html=1;align=center;verticalAlign=middle;whiteSpace=wrap;rounded=0;" vertex="1" parent="1">
          <mxGeometry x="420" y="510" width="120" height="60" as="geometry" />
        </mxCell>
        <mxCell id="bbLIiAPHO2BsB2zvSvo4-37" value="&quot;Error: Por favor, ingresa un monto válido.&quot;" style="shape=document;whiteSpace=wrap;html=1;boundedLbl=1;" vertex="1" parent="1">
          <mxGeometry x="440" y="725" width="120" height="80" as="geometry" />
        </mxCell>
        <mxCell id="bbLIiAPHO2BsB2zvSvo4-38" value="&quot;Ingrese monto a pagar&quot;" style="shape=document;whiteSpace=wrap;html=1;boundedLbl=1;" vertex="1" parent="1">
          <mxGeometry x="250" y="620" width="120" height="80" as="geometry" />
        </mxCell>
        <mxCell id="bbLIiAPHO2BsB2zvSvo4-42" style="edgeStyle=orthogonalEdgeStyle;rounded=0;orthogonalLoop=1;jettySize=auto;html=1;exitX=0.5;exitY=0;exitDx=0;exitDy=0;entryX=0.998;entryY=0.418;entryDx=0;entryDy=0;entryPerimeter=0;" edge="1" parent="1" source="bbLIiAPHO2BsB2zvSvo4-37" target="bbLIiAPHO2BsB2zvSvo4-38">
          <mxGeometry relative="1" as="geometry" />
        </mxCell>
        <mxCell id="bbLIiAPHO2BsB2zvSvo4-45" value="" style="endArrow=classic;html=1;rounded=0;exitX=0.477;exitY=0.893;exitDx=0;exitDy=0;exitPerimeter=0;entryX=0.5;entryY=0;entryDx=0;entryDy=0;" edge="1" parent="1" source="bbLIiAPHO2BsB2zvSvo4-31" target="bbLIiAPHO2BsB2zvSvo4-38">
          <mxGeometry width="50" height="50" relative="1" as="geometry">
            <mxPoint x="570" y="520" as="sourcePoint" />
            <mxPoint x="620" y="470" as="targetPoint" />
          </mxGeometry>
        </mxCell>
        <mxCell id="bbLIiAPHO2BsB2zvSvo4-46" value="" style="endArrow=classic;html=1;rounded=0;exitX=0.51;exitY=0.847;exitDx=0;exitDy=0;exitPerimeter=0;entryX=0.5;entryY=0;entryDx=0;entryDy=0;" edge="1" parent="1" source="bbLIiAPHO2BsB2zvSvo4-38" target="bbLIiAPHO2BsB2zvSvo4-14">
          <mxGeometry width="50" height="50" relative="1" as="geometry">
            <mxPoint x="570" y="720" as="sourcePoint" />
            <mxPoint x="620" y="670" as="targetPoint" />
          </mxGeometry>
        </mxCell>
        <mxCell id="bbLIiAPHO2BsB2zvSvo4-47" value="&quot;Éxito: Has comprado &quot; + producto_seleccionado + &quot;. ¡Disfruta!&quot;" style="shape=parallelogram;perimeter=parallelogramPerimeter;whiteSpace=wrap;html=1;fixedSize=1;" vertex="1" parent="1">
          <mxGeometry x="225" y="840" width="170" height="70" as="geometry" />
        </mxCell>
      </root>
    </mxGraphModel>
  </diagram>
</mxfile>
